<svg width="20" height="20" viewBox="0 0 20 20" fill="none" xmlns="http://www.w3.org/2000/svg">
<rect x="0.402344" y="0.400391" width="19.2" height="19.2" rx="9.6" fill="#F9F9F9"/>
<g clip-path="url(#clip0_1965_10030)">
<path d="M9.43577 16.2125C10.2395 16.2125 10.8911 15.562 10.8911 14.7596C10.8911 13.9571 10.2395 13.3066 9.43577 13.3066C8.63203 13.3066 7.98047 13.9571 7.98047 14.7596C7.98047 15.562 8.63203 16.2125 9.43577 16.2125Z" fill="#1F5C9C"/>
<path d="M9.4386 13.3066C9.29145 13.3066 9.1495 13.3286 9.01562 13.3692C9.61303 13.5501 10.048 14.104 10.048 14.7596C10.048 15.4151 9.61303 15.9691 9.01562 16.15C9.1495 16.1905 9.29145 16.2125 9.4386 16.2125C10.2423 16.2125 10.8939 15.562 10.8939 14.7596C10.8939 13.9572 10.2423 13.3066 9.4386 13.3066Z" fill="#F2B51D"/>
<path d="M9.60757 6.28002C9.14022 6.37377 8.68522 6.07152 8.5913 5.60492C8.4974 5.13832 8.80012 4.68404 9.2675 4.59029C9.73487 4.49654 10.1898 4.79879 10.2838 5.26539C10.3777 5.73199 10.0749 6.18624 9.60757 6.28002Z" fill="#F7C92B"/>
<path d="M10.2829 5.26539C10.189 4.79877 9.734 4.49654 9.26662 4.59029C9.22312 4.59902 9.18108 4.61089 9.14062 4.62557C9.41348 4.72529 9.62947 4.96014 9.69092 5.26539C9.7761 5.68857 9.535 6.10157 9.14072 6.24472C9.28497 6.29742 9.44508 6.31242 9.6067 6.28C10.0741 6.18625 10.3768 5.732 10.2829 5.26539Z" fill="#F2B51D"/>
<path d="M13.045 14.5165H5.83589C5.19087 14.5165 4.66797 13.9945 4.66797 13.3505C4.66797 12.994 4.82957 12.6566 5.10752 12.4328L5.33914 12.2463C5.87484 11.8149 6.18627 11.1647 6.18627 10.4776V9.25217C6.18627 7.44419 7.65432 5.97852 9.46522 5.97852C11.2761 5.97852 12.7442 7.44417 12.7442 9.25217V10.5003C12.7442 11.1744 13.044 11.8137 13.5626 12.2454L13.7882 12.4332C14.0573 12.6572 14.2129 12.9889 14.2129 13.3387V13.3505C14.2129 13.9945 13.69 14.5165 13.045 14.5165Z" fill="#F7E249"/>
<path d="M13.7859 12.4332L13.5603 12.2455C13.0417 11.8137 12.7419 11.1744 12.7419 10.5003V9.25217C12.7419 7.44419 11.2738 5.97852 9.46291 5.97852C9.14209 5.97852 8.83211 6.02472 8.53906 6.11047C9.90014 6.50877 10.8942 7.76447 10.8942 9.25214V10.5002C10.8942 11.1744 11.194 11.8137 11.7126 12.2454L11.9382 12.4332C12.2073 12.6572 12.3629 12.9889 12.3629 13.3387V13.3505C12.3629 13.9945 11.84 14.5165 11.1949 14.5165H13.0426C13.6877 14.5165 14.2106 13.9945 14.2106 13.3505V13.3387C14.2106 12.989 14.055 12.6572 13.7859 12.4332Z" fill="#F7C92B"/>
<path d="M12.5173 9.40739C14.0716 9.40739 15.3316 8.14946 15.3316 6.59774C15.3316 5.04601 14.0716 3.78809 12.5173 3.78809C10.9631 3.78809 9.70312 5.04601 9.70312 6.59774C9.70312 8.14946 10.9631 9.40739 12.5173 9.40739Z" fill="#2563EB"/>
<path d="M13.2741 3.89062C13.9918 4.3998 14.46 5.23655 14.46 6.18248C14.46 7.7342 13.2001 8.99213 11.6458 8.99213C11.3842 8.99213 11.131 8.95635 10.8906 8.88968C11.3503 9.21575 11.9121 9.40747 12.5189 9.40747C14.0732 9.40747 15.3331 8.14955 15.3331 6.5978C15.3332 5.30728 14.4616 4.2201 13.2741 3.89062Z" fill="#1F5C9C"/>
<path d="M15.1479 6.59774C15.1479 6.70131 15.2319 6.78524 15.3354 6.78524C15.439 6.78524 15.5229 6.70131 15.5229 6.59774C15.5229 4.94509 14.1763 3.60059 12.5212 3.60059C11.5842 3.60059 10.7463 4.03154 10.1954 4.70524C9.95132 4.45256 9.59194 4.33509 9.23354 4.40679C8.95837 4.46206 8.72124 4.62096 8.56577 4.85424C8.41027 5.08756 8.35507 5.36741 8.41034 5.64236C8.43039 5.74166 8.46439 5.83641 8.51079 5.92444C7.03924 6.34421 5.99864 7.70061 5.99864 9.25261C5.99864 9.35619 6.08257 9.44011 6.18614 9.44011C6.28972 9.44011 6.37364 9.35619 6.37364 9.25261C6.37364 7.78291 7.42014 6.50976 8.86194 6.22509C8.86214 6.22506 8.86234 6.22501 8.86257 6.22496H8.86259C9.06019 6.18616 9.26292 6.16649 9.46509 6.16649C9.49364 6.16649 9.52212 6.16699 9.55052 6.16776C9.53022 6.30824 9.51949 6.45174 9.51949 6.59774C9.51949 8.25036 10.866 9.59491 12.5212 9.59491C12.533 9.59491 12.5447 9.59434 12.5565 9.59421V10.5009C12.5565 11.2327 12.8795 11.9212 13.4426 12.39L13.6681 12.5778C13.8952 12.7668 14.0254 13.0444 14.0254 13.3393V13.3511C14.0254 13.8907 13.5856 14.3297 13.045 14.3297H5.83594C5.29529 14.3297 4.85544 13.8907 4.85544 13.3511C4.85544 13.2037 4.88902 13.0559 4.95254 12.9235C5.01619 12.7907 5.11039 12.6718 5.22517 12.5794L5.45662 12.3928C6.03942 11.9236 6.37364 11.2257 6.37364 10.4781V10.0671C6.37364 9.96354 6.28972 9.87961 6.18614 9.87961C6.08257 9.87961 5.99864 9.96354 5.99864 10.0671V10.4781C5.99864 11.1116 5.71537 11.703 5.22134 12.1008L4.98994 12.2874C4.83197 12.4144 4.70207 12.5784 4.61442 12.7613C4.52677 12.944 4.48047 13.1479 4.48047 13.3511C4.48047 14.0975 5.08854 14.7047 5.83597 14.7047H7.79884C7.79822 14.7232 7.79767 14.7417 7.79767 14.7602C7.79767 15.6647 8.53464 16.4006 9.44049 16.4006C10.3463 16.4006 11.0833 15.6647 11.0833 14.7602C11.0833 14.7417 11.0828 14.7232 11.0821 14.7047H13.045C13.7924 14.7047 14.4005 14.0975 14.4005 13.3511V13.3393C14.4005 12.9327 14.221 12.5501 13.9081 12.2896L13.6826 12.1018C13.2053 11.7045 12.9316 11.121 12.9316 10.5009V9.56684C13.4412 9.49784 13.9207 9.30054 14.3363 8.98509C14.8448 8.59909 15.2233 8.05114 15.4021 7.44219C15.4313 7.34284 15.3744 7.23864 15.275 7.20946C15.1757 7.18031 15.0715 7.23721 15.0423 7.33656C14.886 7.86911 14.5547 8.34849 14.1095 8.68636C13.6497 9.03539 13.1005 9.21986 12.5212 9.21986C11.0729 9.21986 9.89454 8.04356 9.89454 6.59769C9.89449 5.15189 11.0728 3.97559 12.5212 3.97559C13.9696 3.97559 15.1479 5.15189 15.1479 6.59774ZM10.7083 14.7601C10.7083 15.4579 10.1395 16.0256 9.44047 16.0256C8.74139 16.0256 8.17264 15.4579 8.17264 14.7601C8.17264 14.7417 8.17309 14.7232 8.17392 14.7047H10.707C10.7078 14.7232 10.7083 14.7417 10.7083 14.7601ZM9.46509 5.79149C9.27539 5.79149 9.08529 5.80719 8.89829 5.83779C8.83904 5.75859 8.79787 5.66694 8.77797 5.56834C8.74249 5.39181 8.77797 5.21206 8.87784 5.06219C8.97779 4.91219 9.13037 4.80999 9.30729 4.77446C9.56109 4.72354 9.81594 4.82019 9.97139 5.01809C9.82244 5.25694 9.70617 5.51806 9.62892 5.79529C9.57467 5.79276 9.51994 5.79149 9.46509 5.79149Z" fill="black"/>
<path d="M12.5193 7.90159C12.6229 7.90159 12.7068 7.81767 12.7068 7.71409V5.37792C12.7068 5.30367 12.663 5.23644 12.5951 5.20642C12.5272 5.17644 12.448 5.18929 12.3931 5.23927L11.991 5.60539C11.9144 5.67509 11.9088 5.79369 11.9785 5.87027C12.0482 5.94684 12.1668 5.95242 12.2434 5.88269L12.3318 5.80219V7.71412C12.3318 7.81767 12.4158 7.90159 12.5193 7.90159Z" fill="#F9F9F9"/>
</g>
<defs>
<clipPath id="clip0_1965_10030">
<rect width="12.8" height="12.8" fill="white" transform="translate(3.60156 3.60059)"/>
</clipPath>
</defs>
</svg>
